# xmcd
#
# Track frame offsets:
#	183
#	13015
#	28835
#	45258
#	61210
#	80225
#	92708
#	107643
#	124678
#	138778
#	156315
#	166503
#
# Disc length: 2414 seconds
#
# Revision: 3
# Processed by: cddbd v1.5.2PL0 Copyright (c) Steve Scherf et al.
# Submitted via: audiograbber 1.83.01
#
DISCID=8e096c0c
DTITLE=Zarah Leander - Die Großen Erfolge von gestern
DYEAR=1900
DGENRE=Chanson
TTITLE0=Kann denn Liebe Sünde sein
TTITLE1=Eine Frau wird erst schön durch die Liebe
TTITLE2=Ich steh' im Regen
TTITLE3=Davon geht die Welt nicht unter
TTITLE4=Nur nicht aus Liebe weinen
TTITLE5=Yes, Sir
TTITLE6=Ich weiß, es wird einmal ein Wunder gescheh'n
TTITLE7=Ich hab' eine tiefe Sehnsucht in mir
TTITLE8=Drei Sterne sah ich scheinen
TTITLE9=Der Wind hat mir ein Lied erzählt
TTITLE10=Er heißt Waldemar
TTITLE11=Merci, mon Ami, es war wunderschön
EXTD=
EXTT0=
EXTT1=
EXTT2=
EXTT3=
EXTT4=
EXTT5=
EXTT6=
EXTT7=
EXTT8=
EXTT9=
EXTT10=
EXTT11=
PLAYORDER=
